<svg width="42" height="43" viewBox="0 0 42 43" fill="none" xmlns="http://www.w3.org/2000/svg">
<path d="M18.7584 30.6453C19.1119 31.0696 19.7425 31.1271 20.1668 30.7736C20.5912 30.4201 20.6486 29.7896 20.2951 29.3652L18.7584 30.6453ZM12.161 21.1627L11.3927 20.5226C11.0838 20.8934 11.0838 21.4319 11.3927 21.8027L12.161 21.1627ZM20.2951 12.9601C20.6486 12.5358 20.5912 11.9052 20.1668 11.5517C19.7425 11.1983 19.1119 11.2557 18.7584 11.6801L20.2951 12.9601ZM29.8388 22.1627C30.3911 22.1627 30.8388 21.7149 30.8388 21.1627C30.8388 20.6104 30.3911 20.1627 29.8388 20.1627V22.1627ZM20.2951 29.3652L12.9294 20.5226L11.3927 21.8027L18.7584 30.6453L20.2951 29.3652ZM12.9294 21.8027L20.2951 12.9601L18.7584 11.6801L11.3927 20.5226L12.9294 21.8027ZM12.161 22.1627H29.8388V20.1627H12.161V22.1627ZM7.56512 7.72155C14.985 0.298545 27.0149 0.298545 34.4349 7.72155L35.8494 6.30763C27.6483 -1.89682 14.3517 -1.89682 6.15061 6.30763L7.56512 7.72155ZM34.4349 7.72155C41.855 15.1448 41.855 27.1804 34.4349 34.6036L35.8494 36.0176C44.0502 27.8133 44.0502 14.5119 35.8494 6.30763L34.4349 7.72155ZM34.4349 34.6036C27.0149 42.0267 14.985 42.0267 7.56512 34.6036L6.15061 36.0176C14.3517 44.222 27.6483 44.222 35.8494 36.0176L34.4349 34.6036ZM7.56512 34.6036C0.144961 27.1804 0.144961 15.1448 7.56512 7.72155L6.15061 6.30763C-2.0502 14.5119 -2.0502 27.8133 6.15061 36.0176L7.56512 34.6036Z" fill="white"/>
</svg>
