<svg width="17" height="17" viewBox="0 0 17 17" fill="none" xmlns="http://www.w3.org/2000/svg">
<g clip-path="url(#clip0_1_289)">
<path d="M8.48572 13.166L4.04529 10.998L8.48169 16.968L9.14819 16.071V12.8416L8.48572 13.166Z" fill="#15BFFD"/>
<path d="M8.48169 0.968018L3.38623 10.111H13.5773L8.48169 0.968018Z" fill="#15BFFD"/>
<path d="M13.5773 10.1245L8.48169 0.968018V10.1245H13.5773Z" fill="#1286B0"/>
<path d="M6.94019 6.0459H7.94019V7.0459H6.94019V6.0459Z" fill="#F7F8FA"/>
<path d="M8.48169 7.62817L8.46167 7.61865L3.38672 10.1187H3.39124L8.46619 12.6187L8.48621 12.6091L9.14819 12.2852V7.95459L8.48169 7.62817Z" fill="#147EA5"/>
<path d="M6.94019 4.15454H7.94019V5.15454H6.94019V4.15454Z" fill="#F7F8FA"/>
<path d="M8.48572 13.1659L8.48169 16.9679L12.9213 10.9939L8.48572 13.1659Z" fill="#1286B0"/>
<path d="M13.5677 10.1187L8.48169 7.62817L8.46167 7.61865L8.46619 12.6187L8.48621 12.6091L13.5723 10.1187H13.5677Z" fill="#0E526A"/>
</g>
<defs>
<clipPath id="clip0_1_289">
<rect width="16" height="16" fill="white" transform="translate(0.47998 0.968018)"/>
</clipPath>
</defs>
</svg>
