<svg width="42" height="43" viewBox="0 0 42 43" fill="none" xmlns="http://www.w3.org/2000/svg">
<path d="M23.2416 11.6801C22.8881 11.2557 22.2575 11.1983 21.8332 11.5517C21.4088 11.9052 21.3514 12.5358 21.7049 12.9601L23.2416 11.6801ZM29.839 21.1627L30.6073 21.8027C30.9162 21.4319 30.9162 20.8934 30.6073 20.5226L29.839 21.1627ZM21.7049 29.3652C21.3514 29.7896 21.4088 30.4201 21.8332 30.7736C22.2575 31.1271 22.8881 31.0696 23.2416 30.6453L21.7049 29.3652ZM12.1612 20.1627C11.6089 20.1627 11.1612 20.6104 11.1612 21.1627C11.1612 21.7149 11.6089 22.1627 12.1612 22.1627V20.1627ZM21.7049 12.9601L29.0706 21.8027L30.6073 20.5226L23.2416 11.6801L21.7049 12.9601ZM29.0706 20.5226L21.7049 29.3652L23.2416 30.6453L30.6073 21.8027L29.0706 20.5226ZM29.839 20.1627L12.1612 20.1627V22.1627L29.839 22.1627V20.1627ZM34.4349 7.72155C41.855 15.1448 41.855 27.1804 34.4349 34.6036L35.8494 36.0176C44.0502 27.8133 44.0502 14.5119 35.8494 6.30763L34.4349 7.72155ZM34.4349 34.6036C27.0149 42.0267 14.985 42.0267 7.56512 34.6036L6.15061 36.0176C14.3517 44.222 27.6483 44.222 35.8494 36.0176L34.4349 34.6036ZM7.56512 34.6036C0.144961 27.1804 0.144961 15.1448 7.56512 7.72155L6.15061 6.30763C-2.0502 14.5119 -2.0502 27.8133 6.15061 36.0176L7.56512 34.6036ZM7.56512 7.72155C14.985 0.298544 27.0149 0.298544 34.4349 7.72155L35.8494 6.30763C27.6483 -1.89682 14.3517 -1.89682 6.15061 6.30763L7.56512 7.72155Z" fill="white"/>
</svg>
